<?xml version="1.0" encoding="UTF-8" standalone="no"?>
<svg
   xmlns:dc="http://purl.org/dc/elements/1.1/"
   xmlns:cc="http://creativecommons.org/ns#"
   xmlns:rdf="http://www.w3.org/1999/02/22-rdf-syntax-ns#"
   xmlns:svg="http://www.w3.org/2000/svg"
   xmlns="http://www.w3.org/2000/svg"
   xmlns:sodipodi="http://sodipodi.sourceforge.net/DTD/sodipodi-0.dtd"
   xmlns:inkscape="http://www.inkscape.org/namespaces/inkscape"
   version="1.1"
   id="svg2"
   xml:space="preserve"
   width="181.33333"
   height="77.333336"
   viewBox="0 0 181.33333 77.333336"
   sodipodi:docname="hospital-da-bahia.eps"><metadata
     id="metadata8"><rdf:RDF><cc:Work
         rdf:about=""><dc:format>image/svg+xml</dc:format><dc:type
           rdf:resource="http://purl.org/dc/dcmitype/StillImage" /></cc:Work></rdf:RDF></metadata><defs
     id="defs6" /><sodipodi:namedview
     pagecolor="#ffffff"
     bordercolor="#666666"
     borderopacity="1"
     objecttolerance="10"
     gridtolerance="10"
     guidetolerance="10"
     inkscape:pageopacity="0"
     inkscape:pageshadow="2"
     inkscape:window-width="640"
     inkscape:window-height="480"
     id="namedview4" /><g
     id="g10"
     inkscape:groupmode="layer"
     inkscape:label="ink_ext_XXXXXX"
     transform="matrix(1.3333333,0,0,-1.3333333,0,77.333333)"><g
       id="g12"
       transform="scale(0.1)"><path
         d="m 668.883,451.988 c 0.367,-0.246 0.789,-0.457 1.277,-0.64 0.485,-0.18 0.969,-0.332 1.457,-0.453 0.238,0 0.516,-0.032 0.821,-0.09 0.3,-0.063 0.636,-0.094 1,-0.094 0.246,-0.125 0.515,-0.18 0.824,-0.18 0.301,0 0.574,0 0.816,0 0.121,0 0.219,0 0.277,0 0.063,0 0.149,0 0.274,0 0.121,0 0.238,0 0.359,0 0.246,0 0.461,0 0.641,0 0.184,0 0.332,0 0.457,0 0.73,0 1.457,0 2.184,0 0.734,0 1.46,0.055 2.191,0.18 0.609,0.121 1.184,0.273 1.73,0.457 0.551,0.18 1,0.332 1.368,0.453 v -52.867 c 1.703,-0.484 3.89,-0.848 6.566,-1.094 2.672,-0.246 5.828,-0.488 9.477,-0.73 3.523,-0.121 7.171,-0.242 10.941,-0.364 3.766,-0.121 7.594,-0.183 11.484,-0.183 0.121,0 0.246,0 0.364,0 0.121,0 0.211,0 0.273,0 0.059,0 0.156,0 0.277,0 3.887,0 7.719,0.031 11.481,0.094 3.773,0.058 7.476,0.152 11.121,0.273 3.527,0.242 6.625,0.484 9.301,0.727 2.676,0.246 4.797,0.55 6.379,0.914 v 53.597 c 0.121,-0.246 0.242,-0.394 0.367,-0.457 0.117,-0.058 0.238,-0.09 0.363,-0.09 0,-0.121 0.059,-0.183 0.184,-0.183 0.121,0 0.242,0 0.363,0 0.242,-0.121 0.484,-0.18 0.727,-0.18 0.242,0 0.492,0 0.73,0 0.488,-0.121 0.941,-0.246 1.367,-0.367 0.43,-0.125 0.883,-0.18 1.367,-0.18 0.489,0 0.942,0 1.368,0 0.421,0 0.882,0 1.367,0 0.605,0 1.246,0 1.918,0 0.668,0 1.304,0.055 1.91,0.18 0.609,0.121 1.246,0.273 1.914,0.457 0.672,0.18 1.246,0.332 1.734,0.453 v -127.43 c -0.488,0 -1.004,0.032 -1.55,0.09 -0.547,0.063 -1.125,0.153 -1.735,0.274 -0.605,0.121 -1.242,0.211 -1.914,0.273 -0.668,0.063 -1.305,0.09 -1.91,0.09 -0.367,0 -0.73,0 -1.094,0 -0.363,0 -0.672,-0.059 -0.91,-0.176 -0.367,0 -0.734,-0.035 -1.098,-0.097 -0.363,-0.059 -0.73,-0.09 -1.093,-0.09 -0.727,-0.121 -1.457,-0.211 -2.188,-0.274 -0.726,-0.058 -1.457,-0.09 -2.187,-0.09 v 63.079 c -0.852,0 -1.856,0.027 -3.012,0.089 -1.152,0.059 -2.398,0.157 -3.731,0.278 -1.339,0 -2.769,0.027 -4.289,0.086 -1.519,0.062 -3.125,0.152 -4.828,0.277 -3.406,0.242 -7.019,0.395 -10.851,0.453 -3.828,0.063 -7.809,0.094 -11.938,0.094 -0.73,0 -1.461,0 -2.187,0 -0.731,0 -1.461,0 -2.184,0 -0.859,-0.125 -1.644,-0.188 -2.375,-0.188 -0.726,0 -1.457,0 -2.191,0 -0.727,0 -1.453,0 -2.184,0 -0.73,0 -1.457,0 -2.187,0 -0.852,-0.117 -1.645,-0.175 -2.368,-0.175 -0.734,0 -1.464,0 -2.191,0 -0.848,0 -1.73,-0.032 -2.641,-0.094 -0.914,-0.059 -1.793,-0.09 -2.648,-0.09 -0.973,-0.125 -1.883,-0.215 -2.73,-0.277 -0.856,-0.059 -1.762,-0.086 -2.739,-0.086 -1.82,-0.121 -3.586,-0.219 -5.285,-0.278 -1.699,-0.062 -3.402,-0.207 -5.105,-0.457 v -62.711 c -0.727,0 -1.399,0.032 -2.004,0.09 -0.606,0.063 -1.215,0.153 -1.825,0.274 -0.484,0.121 -1,0.211 -1.546,0.273 -0.551,0.063 -1.125,0.09 -1.731,0.09 -0.613,0 -1.25,-0.027 -1.914,-0.09 -0.668,-0.062 -1.309,-0.152 -1.918,-0.273 -0.73,-0.121 -1.457,-0.211 -2.187,-0.274 -0.731,-0.058 -1.579,-0.09 -2.551,-0.09 z m 132.172,-87.691 c 0,7.051 1.066,13.492 3.191,19.324 2.125,5.836 5.317,11.004 9.57,15.496 4.25,4.617 9.266,8.051 15.039,10.301 5.778,2.25 12.243,3.371 19.415,3.371 5.351,0 10.117,-0.664 14.312,-2.004 4.195,-1.332 7.813,-3.277 10.848,-5.832 2.914,-2.551 5.468,-5.226 7.656,-8.023 2.187,-2.793 4.012,-5.774 5.469,-8.93 0.972,-2.066 1.765,-4.102 2.375,-6.105 0.605,-2.012 1.09,-3.985 1.457,-5.93 0.363,-1.945 0.64,-3.676 0.816,-5.195 0.188,-1.52 0.277,-2.825 0.277,-3.918 0,-1.094 -0.031,-2.223 -0.089,-3.375 -0.063,-1.157 -0.219,-2.336 -0.461,-3.551 -0.117,-1.219 -0.332,-2.403 -0.637,-3.559 -0.301,-1.152 -0.641,-2.34 -1,-3.551 -1.215,-3.773 -2.98,-7.421 -5.293,-10.941 -2.305,-3.527 -5.16,-6.867 -8.566,-10.027 -3.399,-3.035 -7.5,-5.317 -12.305,-6.836 -4.797,-1.52 -10.242,-2.282 -16.313,-2.282 -0.242,0 -0.488,0 -0.734,0 -0.242,0 -0.484,0 -0.727,0 -0.125,0 -0.308,0 -0.546,0 -0.125,0 -0.246,0 -0.368,0 -0.117,0 -0.242,0 -0.363,0 -6.805,0 -12.855,0.977 -18.137,2.918 -5.289,1.946 -9.816,4.922 -13.582,8.934 -3.769,4.012 -6.593,8.481 -8.48,13.398 -1.883,4.922 -2.824,10.239 -2.824,15.954 z m 17.136,-1.274 c 0,-0.976 0.063,-2.066 0.184,-3.281 0.121,-1.219 0.242,-2.554 0.363,-4.012 0.242,-1.46 0.547,-2.945 0.914,-4.464 0.364,-1.52 0.911,-3.133 1.637,-4.836 0.848,-2.188 1.949,-4.313 3.281,-6.379 1.34,-2.067 2.981,-4.008 4.926,-5.832 1.824,-1.824 4.102,-3.223 6.832,-4.199 2.735,-0.969 5.805,-1.575 9.211,-1.817 3.887,0 7.473,0.789 10.758,2.367 3.277,1.582 6.258,4.012 8.93,7.293 2.55,3.16 4.586,7.172 6.105,12.032 1.52,4.859 2.461,10.515 2.828,16.957 0,5.711 -0.547,10.906 -1.64,15.586 -1.094,4.679 -2.739,8.839 -4.926,12.488 -2.184,3.523 -5.012,6.195 -8.477,8.019 -3.461,1.825 -7.504,2.739 -12.121,2.739 -4.496,0 -8.508,-0.946 -12.035,-2.829 -3.52,-1.882 -6.5,-4.769 -8.93,-8.656 -2.429,-3.769 -4.316,-7.75 -5.652,-11.945 -1.34,-4.188 -2.125,-8.598 -2.367,-13.215 0,-0.242 0,-0.484 0,-0.726 0,-0.247 0,-0.493 0,-0.735 0,-0.121 0,-0.273 0,-0.453 0,-0.184 0,-0.398 0,-0.641 0,-0.121 0,-0.273 0,-0.453 0,-0.183 0,-0.336 0,-0.457 0,-0.242 0,-0.426 0,-0.547 0,-0.121 0,-0.3 0,-0.547 0,-0.367 0,-0.699 0,-1.003 0,-0.301 0.054,-0.579 0.179,-0.821 z m 88.965,22.973 c 0,4.617 0.793,8.688 2.375,12.211 1.574,3.527 4.008,6.379 7.293,8.566 3.281,2.188 6.711,3.829 10.297,4.926 3.586,1.09 7.324,1.703 11.211,1.824 0.973,0 1.887,-0.031 2.734,-0.093 0.852,-0.063 1.766,-0.149 2.739,-0.27 0.847,-0.125 1.73,-0.25 2.64,-0.371 0.91,-0.121 1.793,-0.301 2.645,-0.543 1.703,-0.492 3.379,-1.031 5.015,-1.644 1.637,-0.606 3.25,-1.278 4.833,-2.004 l -4.379,-14.035 h -2.918 c -0.485,1.699 -1.243,3.25 -2.274,4.644 -1.035,1.402 -2.285,2.586 -3.738,3.559 -1.461,0.968 -2.949,1.699 -4.465,2.187 -1.519,0.488 -3.133,0.789 -4.836,0.91 -0.125,0 -0.242,0 -0.363,0 -0.121,0 -0.246,0 -0.363,0 -1.829,0 -3.559,-0.242 -5.196,-0.73 -1.644,-0.485 -3.191,-1.211 -4.652,-2.188 -1.578,-0.968 -2.824,-2.187 -3.738,-3.64 -0.911,-1.461 -1.551,-3.164 -1.911,-5.106 0,-0.121 0,-0.246 0,-0.367 -0.125,-0.121 -0.183,-0.246 -0.183,-0.367 0,-0.121 0,-0.242 0,-0.363 0,-0.122 0,-0.243 0,-0.364 -0.125,-0.121 -0.18,-0.273 -0.18,-0.453 0,-0.183 0,-0.34 0,-0.461 0,-0.117 0,-0.238 0,-0.363 0,-0.121 0,-0.238 0,-0.363 0,-2.188 0.449,-4.133 1.363,-5.836 0.911,-1.696 2.278,-3.098 4.102,-4.192 1.82,-1.09 3.77,-2.125 5.836,-3.101 2.066,-0.969 4.254,-1.821 6.559,-2.551 0.246,-0.121 0.461,-0.211 0.636,-0.273 0.188,-0.059 0.395,-0.09 0.641,-0.09 0.125,-0.121 0.305,-0.211 0.547,-0.274 0.246,-0.058 0.488,-0.152 0.734,-0.273 0.485,-0.125 0.942,-0.246 1.363,-0.363 0.43,-0.125 0.879,-0.247 1.368,-0.368 0.246,-0.121 0.484,-0.242 0.73,-0.363 0.246,-0.121 0.488,-0.242 0.731,-0.363 0.242,-0.121 0.515,-0.215 0.82,-0.274 0.301,-0.062 0.578,-0.093 0.816,-0.093 3.282,-1.215 6.082,-2.614 8.391,-4.192 2.309,-1.578 4.195,-3.402 5.648,-5.469 1.461,-1.945 2.555,-3.953 3.286,-6.015 0.726,-2.07 1.152,-4.133 1.273,-6.203 0,-0.121 0,-0.211 0,-0.274 0,-0.058 0,-0.148 0,-0.269 0,-0.125 0,-0.215 0,-0.274 0,-0.062 0,-0.152 0,-0.273 -0.121,-3.406 -1.031,-6.684 -2.738,-9.848 -1.696,-3.16 -4.133,-6.137 -7.289,-8.933 -3.036,-2.793 -6.473,-4.86 -10.297,-6.192 -3.832,-1.344 -8.059,-2.012 -12.676,-2.012 -2.551,0 -5.008,0.122 -7.379,0.368 -2.367,0.242 -4.773,0.609 -7.203,1.093 -2.313,0.243 -4.402,0.821 -6.293,1.727 -1.879,0.914 -3.555,2.098 -5.008,3.562 l 4.371,13.305 h 2.922 c 0.973,-1.82 1.973,-3.402 3.008,-4.738 1.031,-1.34 2.094,-2.496 3.187,-3.465 1.098,-0.977 2.219,-1.824 3.372,-2.555 1.156,-0.722 2.343,-1.273 3.554,-1.636 0.488,-0.121 0.973,-0.278 1.461,-0.461 0.485,-0.176 0.973,-0.332 1.457,-0.45 0.488,-0.121 0.973,-0.183 1.457,-0.183 0.488,0 0.973,0 1.465,0 2.305,-0.121 4.461,0.183 6.469,0.91 2.004,0.727 3.914,1.883 5.742,3.461 1.699,1.582 3.066,3.227 4.102,4.926 1.035,1.699 1.668,3.465 1.914,5.285 0,0.121 0,0.242 0,0.363 0,0.125 0,0.246 0,0.367 0,0.125 0,0.243 0,0.364 0,0.125 0,0.246 0,0.367 -0.246,2.793 -0.914,5.133 -2.004,7.015 -1.098,1.887 -2.617,3.313 -4.559,4.286 -1.941,0.972 -3.949,1.855 -6.019,2.644 -2.059,0.789 -4.25,1.551 -6.559,2.278 -0.121,0 -0.246,0 -0.367,0 -0.117,0 -0.246,0.062 -0.363,0.183 -0.125,0 -0.215,0 -0.27,0 -0.063,0 -0.098,0.059 -0.098,0.18 -0.121,0 -0.211,0 -0.273,0 -0.059,0 -0.149,0 -0.27,0 -0.246,0.121 -0.515,0.215 -0.824,0.273 -0.301,0.063 -0.578,0.153 -0.816,0.274 -0.246,0 -0.52,0.035 -0.821,0.093 -0.308,0.063 -0.582,0.149 -0.824,0.274 -0.242,0.121 -0.484,0.215 -0.726,0.273 -0.243,0.063 -0.485,0.153 -0.731,0.274 -0.363,0.121 -0.668,0.211 -0.906,0.273 -0.246,0.059 -0.492,0.153 -0.734,0.274 -2.188,0.73 -4.196,1.703 -6.016,2.918 -1.82,1.214 -3.524,2.613 -5.102,4.191 -1.582,1.703 -2.769,3.738 -3.554,6.109 -0.793,2.368 -1.192,5.196 -1.192,8.473 z m 73.289,25.703 c 0.614,-0.367 1.188,-0.64 1.735,-0.824 0.547,-0.18 1.125,-0.328 1.73,-0.453 0.61,-0.121 1.219,-0.184 1.824,-0.184 0.606,0 1.219,0 1.825,0 0.605,0 1.246,0 1.914,0 0.668,0 1.308,0.063 1.914,0.184 0.242,0 0.515,0.031 0.82,0.09 0.301,0.062 0.641,0.152 1.004,0.273 0.242,0.121 0.516,0.211 0.816,0.274 0.309,0.062 0.578,0.156 0.825,0.273 v -18.23 c 1.089,3.039 2.488,5.742 4.191,8.113 1.707,2.371 3.707,4.285 6.017,5.746 2.19,1.457 4.46,2.641 6.84,3.551 2.37,0.914 4.77,1.551 7.2,1.914 0.24,0 0.48,0 0.73,0 0.24,0 0.48,0.062 0.72,0.183 0.25,0 0.49,0 0.74,0 0.24,0 0.48,0 0.73,0 0.23,0 0.48,0 0.72,0 0.24,0 0.49,0.059 0.74,0.18 0.23,0 0.48,0 0.72,0 0.25,0 0.49,0 0.73,0 5.35,0 10.27,-0.879 14.77,-2.641 4.5,-1.761 8.5,-4.406 12.03,-7.929 3.52,-3.524 6.17,-8.239 7.93,-14.129 1.76,-5.899 2.64,-12.973 2.64,-21.238 0,-5.59 -0.76,-10.911 -2.28,-15.95 -1.52,-5.047 -3.85,-9.879 -7.01,-14.496 -3.04,-4.617 -6.93,-8.051 -11.67,-10.301 -4.74,-2.246 -10.33,-3.375 -16.77,-3.375 -0.12,0 -0.25,0 -0.37,0 -0.12,0 -0.24,0 -0.36,0 -0.13,0 -0.22,0 -0.27,0 -0.07,0 -0.16,0 -0.28,0 -0.12,0 -0.24,0 -0.36,0 -0.13,0 -0.25,0 -0.37,0 -0.12,0 -0.21,0 -0.27,0 -0.06,0 -0.15,0 -0.27,0 -3.9,0 -7.33,0.399 -10.31,1.184 -2.97,0.793 -5.5,2.098 -7.57,3.926 -2.06,1.695 -3.88,3.555 -5.464,5.555 -1.578,2.007 -2.856,4.105 -3.824,6.289 v -62.895 c -0.247,0.121 -0.516,0.215 -0.825,0.277 -0.3,0.059 -0.574,0.153 -0.816,0.27 -0.363,0.121 -0.703,0.215 -1.004,0.277 -0.305,0.059 -0.578,0.09 -0.82,0.09 -0.485,0.121 -1.067,0.176 -1.735,0.176 -0.664,0 -1.304,0 -1.914,0 -0.605,0 -1.246,0 -1.914,0 -0.664,0 -1.304,-0.055 -1.914,-0.176 -0.605,-0.121 -1.183,-0.273 -1.73,-0.457 -0.547,-0.18 -1.121,-0.336 -1.735,-0.457 z m 14.407,-41.57 c 0,-0.242 0,-0.449 0,-0.637 0,-0.179 0,-0.332 0,-0.453 0,-0.125 0,-0.242 0,-0.363 0,-0.121 0,-0.246 0,-0.363 0,-0.977 0,-2.102 0,-3.375 0,-1.278 0.058,-2.645 0.183,-4.102 0,-1.582 0.121,-3.133 0.363,-4.652 0.243,-1.52 0.606,-3.125 1.09,-4.832 0.61,-2.309 1.492,-4.497 2.645,-6.563 1.157,-2.066 2.577,-4.133 4.287,-6.195 1.71,-1.946 3.86,-3.559 6.47,-4.832 2.61,-1.278 5.74,-2.219 9.39,-2.828 0.12,0 0.22,0 0.27,0 0.07,0 0.15,0 0.28,0 0.12,0 0.24,0 0.36,0 0.12,0 0.24,0 0.36,0 0,-0.121 0.07,-0.18 0.19,-0.18 0.12,0 0.24,0 0.36,0 0.12,0 0.21,0 0.28,0 0.05,0 0.15,0 0.27,0 3.52,0 6.71,0.789 9.57,2.367 2.86,1.582 5.32,3.895 7.38,6.93 2.07,3.16 3.65,6.957 4.74,11.394 1.1,4.438 1.65,9.575 1.65,15.407 0,0.484 0,0.941 0,1.363 0,0.43 0,0.883 0,1.371 0,0.242 0,0.484 0,0.727 0,0.246 0,0.488 0,0.73 -0.13,0.242 -0.19,0.484 -0.19,0.734 0,0.239 0,0.485 0,0.723 -0.12,4.133 -0.64,8.117 -1.55,11.945 -0.91,3.828 -2.09,7.446 -3.55,10.848 -1.58,3.523 -3.77,6.133 -6.56,7.836 -2.8,1.703 -6.33,2.555 -10.58,2.555 -0.12,0 -0.21,0 -0.27,0 -0.06,0 -0.15,0 -0.27,0 -0.13,0 -0.25,0 -0.37,0 -0.12,0 -0.3,0 -0.55,0 -0.12,0 -0.21,0 -0.27,0 -0.06,0 -0.15,0 -0.28,0 -3.15,0 -6.07,-0.672 -8.75,-2.008 -2.67,-1.336 -5.1,-3.403 -7.28,-6.199 -2.2,-2.672 -4.11,-6.348 -5.75,-11.028 -1.641,-4.679 -2.95,-10.238 -3.918,-16.683 z m 91.878,43.031 c 0.13,-0.25 0.25,-0.398 0.37,-0.461 0.12,-0.054 0.24,-0.09 0.37,-0.09 0,-0.121 0.06,-0.183 0.17,-0.183 0.13,0 0.25,0 0.37,0 0.24,-0.121 0.49,-0.18 0.73,-0.18 0.24,0 0.49,0 0.73,0 0.49,-0.121 0.94,-0.242 1.37,-0.363 0.42,-0.129 0.87,-0.184 1.37,-0.184 0.48,0 0.93,0 1.36,0 0.43,0 0.88,0 1.37,0 0.61,0 1.24,0 1.91,0 0.67,0 1.31,0.055 1.92,0.184 0.61,0.121 1.25,0.269 1.91,0.453 0.67,0.184 1.25,0.332 1.73,0.453 v -88.598 c -0.48,0 -1,0.032 -1.55,0.09 -0.54,0.063 -1.12,0.153 -1.73,0.274 -0.61,0.121 -1.25,0.211 -1.92,0.273 -0.66,0.063 -1.3,0.09 -1.91,0.09 -0.36,0 -0.72,0 -1.09,0 -0.36,0 -0.67,-0.059 -0.91,-0.176 -0.37,0 -0.73,-0.035 -1.09,-0.097 -0.37,-0.059 -0.73,-0.09 -1.1,-0.09 -0.73,-0.121 -1.46,-0.211 -2.19,-0.274 -0.72,-0.058 -1.45,-0.09 -2.19,-0.09 z m -1.45,31.535 c 0,1.582 0.24,2.977 0.73,4.196 0.48,1.211 1.21,2.246 2.19,3.097 0.96,0.852 2,1.489 3.09,1.914 1.1,0.422 2.25,0.641 3.47,0.641 1.33,0 2.61,-0.219 3.83,-0.641 1.21,-0.425 2.36,-1.062 3.46,-1.914 1.09,-0.851 1.91,-1.914 2.46,-3.191 0.54,-1.277 0.82,-2.766 0.82,-4.465 -0.12,-1.703 -0.51,-3.191 -1.19,-4.469 -0.66,-1.273 -1.48,-2.34 -2.45,-3.187 -0.98,-0.852 -2.01,-1.488 -3.1,-1.914 -1.1,-0.43 -2.25,-0.637 -3.46,-0.637 -1.22,0 -2.41,0.207 -3.56,0.637 -1.16,0.426 -2.22,1.062 -3.19,1.914 -1.1,0.969 -1.89,2.097 -2.37,3.371 -0.49,1.277 -0.73,2.707 -0.73,4.285 z m 47.39,-40.109 h -11.48 c 0.24,0 0.4,0.094 0.45,0.277 0.07,0.18 0.16,0.391 0.28,0.637 0.12,0.242 0.21,0.516 0.28,0.82 0.06,0.305 0.08,0.578 0.08,0.825 0,0.238 -0.02,0.539 -0.08,0.906 -0.07,0.367 -0.16,0.73 -0.28,1.094 -0.12,0.367 -0.21,0.73 -0.28,1.093 -0.05,0.364 -0.21,0.731 -0.45,1.094 l 11.48,0.367 v 17.321 l 14.41,5.652 v -22.973 h 20.05 c -0.12,-0.484 -0.27,-0.914 -0.45,-1.277 -0.19,-0.363 -0.34,-0.668 -0.46,-0.91 -0.12,-0.242 -0.18,-0.516 -0.18,-0.824 0,-0.301 0,-0.575 0,-0.817 0,-0.242 0,-0.519 0,-0.824 0,-0.301 0.06,-0.574 0.18,-0.817 0,-0.121 0.03,-0.273 0.09,-0.46 0.06,-0.176 0.15,-0.329 0.28,-0.454 0.12,-0.242 0.21,-0.425 0.27,-0.546 0.06,-0.122 0.15,-0.305 0.27,-0.547 l -20.05,0.363 v -47.398 c 0,-0.973 0,-1.852 0,-2.645 0,-0.789 0,-1.668 0,-2.641 0,-0.851 0.03,-1.703 0.09,-2.55 0.06,-0.856 0.15,-1.704 0.27,-2.555 0.25,-2.309 0.61,-4.527 1.1,-6.656 0.48,-2.125 1.15,-4.098 2,-5.922 0.85,-1.946 2.1,-3.406 3.74,-4.375 1.64,-0.977 3.62,-1.461 5.92,-1.461 0.61,0 1.28,0.062 2.01,0.183 0.73,0.122 1.52,0.247 2.37,0.364 0.85,0.246 1.73,0.515 2.65,0.824 0.91,0.297 1.85,0.695 2.82,1.18 v -5.286 c -1.58,-0.851 -3.16,-1.457 -4.74,-1.824 -1.58,-0.363 -3.1,-0.726 -4.56,-1.094 -1.46,-0.363 -2.82,-0.636 -4.1,-0.82 -1.28,-0.183 -2.52,-0.269 -3.74,-0.269 -3.4,0 -6.35,0.515 -8.84,1.55 -2.49,1.032 -4.59,2.582 -6.29,4.649 -1.7,2.062 -2.98,4.555 -3.83,7.473 -0.85,2.914 -1.28,6.257 -1.28,10.027 v 0.363 58.883"
         style="fill:#231f20;fill-opacity:1;fill-rule:nonzero;stroke:none"
         id="path14" /><path
         d="m 1180.07,344.242 c 0,2.676 0.43,5.231 1.28,7.66 0.85,2.43 2.13,4.676 3.83,6.743 1.7,2.066 4.04,3.921 7.02,5.562 2.98,1.641 6.59,3.008 10.85,4.106 l 22.97,4.738 c 1.34,0.121 2.52,0.453 3.55,1 1.04,0.547 1.86,1.246 2.47,2.097 0.6,0.973 1.05,2.004 1.36,3.098 0.3,1.098 0.46,2.25 0.46,3.465 0,0.242 0,0.457 0,0.637 0,0.183 0,0.394 0,0.64 -0.13,0.239 -0.18,0.485 -0.18,0.731 0,0.242 0,0.484 0,0.726 -0.13,0.489 -0.22,0.973 -0.28,1.457 -0.06,0.489 -0.21,0.973 -0.45,1.457 -0.61,1.95 -1.52,3.832 -2.74,5.657 -1.22,1.824 -2.67,3.519 -4.37,5.101 -1.71,1.703 -3.62,2.981 -5.75,3.828 -2.13,0.852 -4.46,1.278 -7.02,1.278 -0.12,0 -0.21,0 -0.27,0 -0.06,0 -0.21,0 -0.46,0 -0.12,0 -0.24,0 -0.36,0 -0.12,0 -0.25,0 -0.37,0 -1.45,0 -2.79,-0.121 -4.01,-0.364 -1.21,-0.246 -2.37,-0.609 -3.46,-1.093 -1.09,-0.489 -2.19,-1.032 -3.28,-1.645 -1.1,-0.605 -2.19,-1.332 -3.28,-2.183 -0.62,-0.489 -1.22,-1.032 -1.83,-1.645 -0.61,-0.605 -1.21,-1.215 -1.82,-1.82 -0.61,-0.61 -1.24,-1.274 -1.91,-2.008 -0.67,-0.727 -1.31,-1.457 -1.91,-2.188 l -2.74,0.368 v 10.023 c 0.24,0 0.54,0.094 0.91,0.277 0.36,0.184 0.73,0.332 1.09,0.457 0.37,0.243 0.74,0.489 1.09,0.727 0.37,0.246 0.74,0.484 1.1,0.73 1.7,0.973 3.49,1.852 5.37,2.645 1.89,0.785 3.93,1.609 6.12,2.457 2.18,0.734 4.47,1.309 6.83,1.734 2.37,0.426 4.89,0.637 7.57,0.637 5.35,0 10.02,-0.578 14.04,-1.73 4.01,-1.157 7.29,-2.887 9.84,-5.196 2.55,-2.308 4.47,-5.41 5.74,-9.297 1.28,-3.886 1.92,-8.507 1.92,-13.855 v -45.582 c 0,-1.211 0.09,-2.156 0.27,-2.824 0.19,-0.664 0.52,-1.184 1,-1.543 0.49,-0.371 1.04,-0.645 1.64,-0.825 0.62,-0.183 1.28,-0.273 2.01,-0.273 0.36,0 0.73,0 1.09,0 0.37,0 0.79,0.063 1.28,0.184 0.49,0 0.94,0.058 1.37,0.179 0.42,0.121 0.88,0.243 1.37,0.364 v -3.825 c -0.61,-0.73 -1.25,-1.312 -1.92,-1.734 -0.67,-0.426 -1.37,-0.758 -2.1,-1 -0.36,-0.121 -0.73,-0.184 -1.09,-0.184 -0.36,0 -0.73,-0.062 -1.09,-0.183 -0.49,-0.125 -0.92,-0.211 -1.28,-0.27 -0.36,-0.062 -0.73,-0.097 -1.09,-0.097 -0.13,0 -0.22,0 -0.28,0 -0.06,0 -0.09,-0.059 -0.09,-0.18 -0.12,0 -0.21,0 -0.27,0 -0.06,0 -0.15,0 -0.27,0 -0.13,0 -0.25,0 -0.37,0 -0.12,0 -0.22,0 -0.28,0 -0.06,0 -0.15,0 -0.27,0 -1.82,0 -3.58,0.215 -5.28,0.641 -1.71,0.421 -3.29,1.062 -4.75,1.91 -1.57,0.972 -2.79,2.129 -3.64,3.468 -0.85,1.333 -1.4,2.793 -1.64,4.375 -0.36,-0.371 -0.7,-0.671 -1.01,-0.91 -0.3,-0.246 -0.57,-0.492 -0.81,-0.734 -0.37,-0.246 -0.7,-0.484 -1.01,-0.731 -0.3,-0.242 -0.57,-0.484 -0.82,-0.726 -2.19,-1.703 -4.31,-3.16 -6.37,-4.375 -2.07,-1.215 -4.14,-2.125 -6.21,-2.738 -2.06,-0.727 -4.1,-1.274 -6.1,-1.637 -2.01,-0.363 -3.92,-0.551 -5.75,-0.551 -3.64,0 -6.96,0.52 -9.93,1.551 -2.98,1.035 -5.68,2.586 -8.11,4.652 -2.31,2.188 -4.08,4.649 -5.29,7.379 -1.22,2.735 -1.83,5.684 -1.83,8.844 z m 53.24,22.973 c -6.68,-0.852 -12.46,-1.824 -17.32,-2.918 -4.86,-1.094 -8.75,-2.492 -11.67,-4.192 -2.91,-1.582 -5.13,-3.527 -6.65,-5.835 -1.52,-2.309 -2.28,-5.04 -2.28,-8.204 0,-0.484 0,-0.937 0,-1.367 0,-0.426 0.06,-0.82 0.18,-1.183 0,-0.368 0.03,-0.762 0.09,-1.188 0.07,-0.422 0.15,-0.879 0.27,-1.363 0,-0.125 0,-0.215 0,-0.277 0,-0.059 0.07,-0.153 0.19,-0.274 0,-0.121 0,-0.211 0,-0.273 0,-0.059 0,-0.149 0,-0.274 0,-0.121 0,-0.211 0,-0.269 0,-0.063 0.06,-0.098 0.18,-0.098 0,-0.117 0.03,-0.211 0.09,-0.266 0.06,-0.066 0.15,-0.156 0.27,-0.273 0.62,-1.098 1.37,-2.129 2.28,-3.102 0.92,-0.972 2.1,-1.945 3.56,-2.914 1.46,-0.855 3.01,-1.523 4.65,-2.011 1.64,-0.485 3.43,-0.727 5.38,-0.727 0.97,0 1.91,0.063 2.82,0.184 0.92,0.121 1.85,0.3 2.83,0.543 0.97,0.246 1.94,0.582 2.91,1.007 0.97,0.422 1.95,0.942 2.92,1.543 0.73,0.493 1.49,1.036 2.28,1.645 0.79,0.605 1.61,1.277 2.46,2.004 0.36,0.367 0.73,0.73 1.09,1.094 0.37,0.367 0.79,0.789 1.28,1.273 0.37,0.492 0.73,0.977 1.09,1.465 0.37,0.484 0.74,0.969 1.1,1.457 v 0.363 z m 47.22,97.715 c 0.73,-0.364 1.42,-0.637 2.1,-0.817 0.66,-0.187 1.3,-0.336 1.91,-0.457 0.6,-0.121 1.25,-0.179 1.91,-0.179 0.67,0 1.31,0 1.92,0 0.6,0 1.24,0 1.91,0 0.67,0 1.31,0.058 1.92,0.179 0.6,0.121 1.27,0.27 2,0.457 0.73,0.18 1.46,0.332 2.19,0.453 V 324.191 c -0.25,0 -0.52,0 -0.82,0 -0.31,0 -0.58,0.063 -0.82,0.184 -0.37,0 -0.7,0.027 -1.01,0.09 -0.3,0.058 -0.57,0.09 -0.82,0.09 -0.6,0.121 -1.24,0.211 -1.91,0.273 -0.67,0.063 -1.31,0.09 -1.92,0.09 -0.36,0 -0.72,0 -1.09,0 -0.36,0 -0.67,-0.059 -0.91,-0.176 -0.36,0 -0.73,-0.035 -1.09,-0.097 -0.37,-0.059 -0.73,-0.09 -1.1,-0.09 -0.72,-0.121 -1.46,-0.211 -2.19,-0.274 -0.73,-0.058 -1.45,-0.09 -2.18,-0.09 V 464.93"
         style="fill:#231f20;fill-opacity:1;fill-rule:nonzero;stroke:none"
         id="path16" /><path
         d="m 668.188,155.535 c 0,7.778 0.882,14.707 2.644,20.781 1.762,6.079 4.344,11.301 7.75,15.676 3.52,4.379 7.777,7.692 12.762,9.942 4.98,2.246 10.695,3.367 17.133,3.367 0.121,0 0.246,0 0.367,0 0.121,0 0.304,0 0.547,0 0.117,-0.121 0.273,-0.176 0.457,-0.176 0.179,0 0.332,0 0.453,0 0.242,0 0.515,0 0.82,0 0.305,0 0.641,0 1,0 2.434,-0.367 4.832,-0.918 7.207,-1.641 2.363,-0.734 4.645,-1.707 6.832,-2.925 2.188,-1.207 4.016,-2.485 5.473,-3.825 1.457,-1.336 2.551,-2.675 3.281,-4.007 0.242,-0.243 0.395,-0.516 0.457,-0.821 0.059,-0.304 0.145,-0.578 0.27,-0.824 0,-0.121 0,-0.242 0,-0.363 0,-0.121 0.062,-0.242 0.183,-0.364 0,-0.121 0,-0.242 0,-0.367 0,-0.117 0,-0.238 0,-0.359 v 64.898 c 0.61,-0.367 1.242,-0.64 1.914,-0.816 0.672,-0.184 1.309,-0.34 1.914,-0.461 0.606,-0.121 1.246,-0.18 1.914,-0.18 0.668,0 1.309,0 1.914,0 0.61,0 1.243,0 1.915,0 0.671,0 1.304,0.059 1.914,0.18 0.609,0.121 1.277,0.277 2.007,0.461 0.727,0.176 1.454,0.332 2.188,0.449 V 116.703 c -0.488,0 -1.004,0.031 -1.551,0.086 -0.551,0.066 -1.125,0.156 -1.73,0.277 -0.61,0.122 -1.246,0.211 -1.918,0.274 -0.668,0.062 -1.305,0.09 -1.914,0.09 -0.36,0 -0.727,0 -1.094,0 -0.363,0 -0.668,-0.059 -0.91,-0.18 -0.36,0 -0.731,-0.031 -1.094,-0.094 -0.363,-0.058 -0.727,-0.09 -1.094,-0.09 -0.73,-0.121 -1.457,-0.211 -2.187,-0.277 -0.727,-0.055 -1.461,-0.086 -2.188,-0.086 v 15.86 c -1.945,-2.793 -3.918,-5.165 -5.926,-7.11 -2.003,-1.945 -4.039,-3.582 -6.105,-4.922 -2.188,-1.336 -4.344,-2.398 -6.473,-3.191 -2.129,-0.789 -4.226,-1.367 -6.293,-1.731 -0.242,0 -0.484,0 -0.726,0 -0.242,0 -0.485,-0.062 -0.727,-0.183 -0.242,0 -0.457,0 -0.64,0 -0.184,0 -0.395,0 -0.637,0 -0.246,0 -0.484,0 -0.731,0 -0.246,0 -0.425,-0.063 -0.546,-0.184 -0.243,0 -0.457,0 -0.637,0 -0.184,0 -0.395,0 -0.637,0 -4.863,0 -9.484,0.887 -13.855,2.645 -4.379,1.765 -8.512,4.523 -12.399,8.297 -3.769,3.89 -6.594,8.113 -8.476,12.668 -1.883,4.558 -2.828,9.449 -2.828,14.679 0,0.121 0,0.242 0,0.364 0,0.121 0,0.242 0,0.363 0,0.121 0,0.211 0,0.273 0,0.059 0,0.153 0,0.274 0,0.125 0,0.246 0,0.367 z m 17.32,2.735 c 0,-4.86 0.332,-9.055 1,-12.579 0.672,-3.527 1.672,-6.503 3.008,-8.937 1.339,-2.43 2.797,-4.527 4.379,-6.285 1.582,-1.766 3.16,-3.133 4.738,-4.102 0.484,-0.246 0.945,-0.492 1.371,-0.734 0.422,-0.242 0.879,-0.485 1.363,-0.727 0.367,-0.242 0.762,-0.426 1.188,-0.547 0.422,-0.121 0.879,-0.242 1.363,-0.363 0.973,-0.121 1.828,-0.246 2.555,-0.367 0.726,-0.121 1.394,-0.184 2.004,-0.184 0.121,0 0.214,0 0.273,0 0.063,0 0.152,0 0.273,0 0.247,0 0.43,0 0.551,0 0,-0.121 0.028,-0.179 0.09,-0.179 0.063,0 0.152,0 0.274,0 0.121,0 0.21,0 0.273,0 0.059,0 0.152,0 0.273,0 3.403,0 6.567,0.793 9.481,2.367 2.914,1.582 5.652,3.89 8.203,6.93 2.555,3.164 4.465,6.96 5.742,11.394 1.278,4.438 1.914,9.574 1.914,15.406 0,0.969 -0.031,2.067 -0.09,3.282 -0.062,1.214 -0.152,2.429 -0.273,3.648 -0.121,1.336 -0.273,2.668 -0.457,4.012 -0.18,1.332 -0.399,2.726 -0.641,4.191 -0.605,2.793 -1.484,5.465 -2.64,8.02 -1.157,2.55 -2.582,4.984 -4.285,7.293 -1.579,2.308 -3.676,4.043 -6.286,5.195 -2.617,1.156 -5.683,1.73 -9.214,1.73 -0.118,0 -0.208,0 -0.266,0 -0.063,0 -0.156,0 -0.274,0 -0.121,0 -0.246,0 -0.371,0 -0.121,0 -0.3,0 -0.543,0 -0.121,0 -0.214,0 -0.273,0 -0.063,0 -0.152,0 -0.273,0 -3.77,-0.246 -7.051,-1 -9.844,-2.281 -2.797,-1.269 -5.047,-3.125 -6.746,-5.558 -1.582,-2.305 -2.918,-4.766 -4.012,-7.383 -1.094,-2.61 -1.945,-5.317 -2.551,-8.114 -0.363,-1.457 -0.64,-2.851 -0.824,-4.191 -0.176,-1.336 -0.273,-2.676 -0.273,-4.012 -0.122,-1.336 -0.18,-2.609 -0.18,-3.828 0,-1.215 0,-2.367 0,-3.465 z m 87.508,-21.516 c 0,2.68 0.425,5.226 1.277,7.66 0.852,2.43 2.129,4.676 3.828,6.742 1.703,2.067 4.043,3.918 7.016,5.567 2.98,1.636 6.597,3.004 10.851,4.097 l 22.973,4.743 c 1.332,0.121 2.519,0.453 3.551,1 1.035,0.55 1.851,1.246 2.465,2.097 0.605,0.973 1.058,2.008 1.367,3.098 0.301,1.097 0.453,2.254 0.453,3.465 0,0.242 0,0.457 0,0.64 0,0.184 0,0.395 0,0.633 -0.125,0.246 -0.18,0.484 -0.18,0.731 0,0.246 0,0.488 0,0.734 -0.121,0.484 -0.219,0.969 -0.273,1.453 -0.063,0.488 -0.211,0.977 -0.457,1.461 -0.606,1.945 -1.524,3.824 -2.735,5.652 -1.218,1.821 -2.675,3.524 -4.375,5.106 -1.703,1.703 -3.617,2.976 -5.742,3.824 -2.129,0.856 -4.465,1.277 -7.015,1.277 -0.125,0 -0.219,0 -0.278,0 -0.062,0 -0.215,0 -0.457,0 -0.125,0 -0.246,0 -0.363,0 -0.125,0 -0.246,0 -0.367,0 -1.457,0 -2.793,-0.121 -4.012,-0.363 -1.211,-0.242 -2.367,-0.605 -3.461,-1.09 -1.094,-0.492 -2.191,-1.035 -3.281,-1.644 -1.098,-0.61 -2.188,-1.336 -3.281,-2.188 -0.61,-0.488 -1.219,-1.031 -1.825,-1.64 -0.609,-0.61 -1.215,-1.215 -1.824,-1.825 -0.605,-0.609 -1.242,-1.273 -1.91,-2.004 -0.672,-0.73 -1.309,-1.457 -1.914,-2.191 l -2.738,0.363 v 10.032 c 0.242,0 0.546,0.093 0.91,0.269 0.363,0.184 0.73,0.336 1.094,0.461 0.367,0.242 0.734,0.484 1.097,0.727 0.363,0.246 0.727,0.488 1.09,0.73 1.699,0.977 3.496,1.852 5.379,2.645 1.887,0.789 3.922,1.609 6.109,2.461 2.188,0.73 4.469,1.304 6.836,1.73 2.371,0.422 4.891,0.641 7.567,0.641 5.347,0 10.023,-0.582 14.039,-1.739 4.011,-1.152 7.289,-2.882 9.843,-5.191 2.551,-2.309 4.465,-5.41 5.739,-9.301 1.277,-3.887 1.918,-8.504 1.918,-13.851 v -45.578 c 0,-1.215 0.09,-2.157 0.273,-2.829 0.184,-0.664 0.516,-1.183 1,-1.546 0.488,-0.368 1.035,-0.641 1.641,-0.821 0.613,-0.183 1.277,-0.273 2.008,-0.273 0.363,0 0.726,0 1.089,0 0.368,0 0.793,0.062 1.282,0.183 0.488,0 0.941,0.059 1.367,0.18 0.422,0.121 0.883,0.242 1.367,0.363 v -3.828 c -0.609,-0.726 -1.246,-1.304 -1.914,-1.73 -0.668,-0.426 -1.367,-0.754 -2.102,-1 -0.363,-0.121 -0.726,-0.184 -1.089,-0.184 -0.364,0 -0.731,-0.062 -1.094,-0.183 -0.485,-0.122 -0.914,-0.215 -1.278,-0.27 -0.363,-0.062 -0.726,-0.094 -1.093,-0.094 -0.117,0 -0.211,0 -0.274,0 -0.062,0 -0.09,-0.062 -0.09,-0.183 -0.121,0 -0.214,0 -0.273,0 -0.059,0 -0.152,0 -0.273,0 -0.122,0 -0.243,0 -0.364,0 -0.121,0 -0.218,0 -0.277,0 -0.063,0 -0.148,0 -0.273,0 -1.825,0 -3.586,0.215 -5.29,0.64 -1.695,0.422 -3.277,1.059 -4.738,1.914 -1.574,0.969 -2.793,2.125 -3.64,3.461 -0.856,1.336 -1.399,2.797 -1.645,4.379 -0.363,-0.371 -0.699,-0.672 -1.004,-0.914 -0.301,-0.242 -0.578,-0.488 -0.816,-0.73 -0.367,-0.243 -0.7,-0.485 -1,-0.727 -0.309,-0.246 -0.582,-0.488 -0.828,-0.73 -2.188,-1.703 -4.309,-3.161 -6.379,-4.375 -2.063,-1.219 -4.133,-2.125 -6.196,-2.735 -2.07,-0.73 -4.105,-1.277 -6.105,-1.64 -2.008,-0.364 -3.922,-0.547 -5.746,-0.547 -3.649,0 -6.961,0.515 -9.938,1.551 -2.972,1.031 -5.679,2.582 -8.109,4.648 -2.309,2.187 -4.078,4.648 -5.285,7.379 -1.219,2.738 -1.828,5.683 -1.828,8.844 z m 53.234,22.973 c -6.684,-0.852 -12.457,-1.825 -17.316,-2.918 -4.864,-1.094 -8.754,-2.493 -11.668,-4.192 -2.914,-1.578 -5.137,-3.527 -6.653,-5.836 -1.519,-2.308 -2.281,-5.039 -2.281,-8.203 0,-0.484 0,-0.937 0,-1.367 0,-0.426 0.059,-0.82 0.18,-1.184 0,-0.363 0.035,-0.761 0.093,-1.187 0.063,-0.422 0.149,-0.879 0.27,-1.363 0,-0.125 0,-0.215 0,-0.278 0,-0.058 0.063,-0.152 0.188,-0.273 0,-0.121 0,-0.211 0,-0.274 0,-0.058 0,-0.148 0,-0.269 0,-0.121 0,-0.219 0,-0.274 0,-0.062 0.054,-0.093 0.175,-0.093 0,-0.121 0.035,-0.211 0.098,-0.274 0.055,-0.062 0.148,-0.148 0.273,-0.273 0.606,-1.094 1.364,-2.129 2.274,-3.098 0.918,-0.973 2.097,-1.945 3.558,-2.918 1.457,-0.851 3.008,-1.515 4.649,-2.008 1.64,-0.484 3.433,-0.726 5.379,-0.726 0.972,0 1.914,0.062 2.824,0.183 0.914,0.121 1.852,0.301 2.828,0.543 0.969,0.246 1.945,0.578 2.914,1.008 0.973,0.422 1.945,0.938 2.914,1.543 0.735,0.492 1.492,1.035 2.281,1.645 0.79,0.609 1.614,1.277 2.461,2.004 0.364,0.367 0.731,0.73 1.098,1.093 0.363,0.367 0.785,0.793 1.274,1.278 0.367,0.488 0.73,0.972 1.093,1.461 0.364,0.484 0.731,0.968 1.094,1.457 v 0.363 z m 97.531,81.855 h 43.211 c 0.242,-0.242 0.516,-0.363 0.821,-0.363 0.3,0 0.578,0 0.82,0 0.242,0 0.515,0 0.82,0 0.301,0 0.578,0 0.817,0 3.894,-0.121 7.597,-0.641 11.128,-1.551 3.52,-0.91 6.922,-2.219 10.207,-3.914 3.278,-1.586 5.743,-3.984 7.383,-7.207 1.642,-3.219 2.462,-7.258 2.462,-12.117 0,-0.125 0,-0.246 0,-0.371 0,-0.125 0,-0.246 0,-0.364 0,-0.121 0,-0.211 0,-0.277 0,-0.055 0,-0.145 0,-0.27 0,-0.121 0,-0.246 0,-0.367 0,-0.121 0,-0.242 0,-0.363 0,-0.121 0,-0.211 0,-0.273 0,-0.059 0,-0.149 0,-0.27 0,-3.527 -0.67,-6.898 -2.005,-10.117 -1.34,-3.223 -3.285,-6.289 -5.836,-9.211 -2.55,-2.914 -5.468,-5.258 -8.75,-7.02 -3.285,-1.761 -6.871,-3.004 -10.757,-3.738 4.25,-0.726 8.265,-1.758 12.035,-3.094 3.765,-1.34 7.168,-2.98 10.207,-4.925 3.16,-1.946 5.496,-4.774 7.016,-8.477 1.52,-3.707 2.28,-8.234 2.28,-13.582 0,-6.441 -1.06,-12 -3.19,-16.684 -2.12,-4.675 -5.313,-8.414 -9.571,-11.207 -4.133,-2.918 -8.535,-5.136 -13.215,-6.652 -4.68,-1.523 -9.57,-2.344 -14.676,-2.465 -0.121,0 -0.277,0 -0.457,0 -0.179,0 -0.332,0 -0.453,0 -0.246,0 -0.43,0 -0.551,0 -0.121,0 -0.304,0 -0.547,0 -0.367,0 -0.699,0 -1,0 -0.308,0 -0.578,0 -0.82,0 h -37.379 z m 33.184,-117.769 c 4.254,-0.247 8.051,0.148 11.394,1.183 3.34,1.035 6.352,2.582 9.024,4.649 2.555,2.07 4.68,4.226 6.383,6.468 1.703,2.254 2.976,4.653 3.828,7.207 0,0.243 0.027,0.485 0.09,0.731 0.058,0.242 0.152,0.547 0.273,0.906 0,0.25 0.031,0.488 0.094,0.734 0.054,0.243 0.09,0.485 0.09,0.727 0.121,0.488 0.211,0.973 0.273,1.461 0.059,0.484 0.09,0.969 0.09,1.457 0,6.078 -0.945,11.152 -2.828,15.223 -1.879,4.07 -4.77,7.078 -8.656,9.023 -3.77,1.945 -8.786,3.398 -15.04,4.379 -6.257,0.969 -13.703,1.453 -22.335,1.453 v -55.601 z m -5.832,63.261 c 5.347,-0.242 10.086,0.153 14.219,1.184 4.132,1.031 7.656,2.582 10.57,4.648 2.797,2.067 5.016,4.617 6.656,7.653 1.645,3.046 2.645,6.566 3.008,10.582 0,0.117 0,0.207 0,0.273 0,0.059 0,0.149 0,0.274 0,0.238 0.062,0.421 0.184,0.542 0,0.122 0,0.243 0,0.368 0,0.125 0,0.211 0,0.269 0,0.063 0,0.156 0,0.278 0,3.523 -0.731,6.625 -2.192,9.296 -1.457,2.676 -3.64,4.86 -6.558,6.563 -2.918,1.699 -6.047,2.976 -9.391,3.832 -3.34,0.848 -6.895,1.273 -10.664,1.273 l -17.32,0.364 v -47.399 z m 76.017,-50.32 c 0,2.68 0.43,5.226 1.28,7.66 0.85,2.43 2.13,4.676 3.83,6.742 1.7,2.067 4.04,3.918 7.01,5.567 2.98,1.636 6.6,3.004 10.86,4.097 l 22.96,4.743 c 1.34,0.121 2.53,0.453 3.56,1 1.03,0.55 1.85,1.246 2.46,2.097 0.61,0.973 1.06,2.008 1.37,3.098 0.3,1.097 0.45,2.254 0.45,3.465 0,0.242 0,0.457 0,0.64 0,0.184 0,0.395 0,0.633 -0.12,0.246 -0.18,0.484 -0.18,0.731 0,0.246 0,0.488 0,0.734 -0.12,0.484 -0.21,0.969 -0.27,1.453 -0.07,0.488 -0.21,0.977 -0.46,1.461 -0.61,1.945 -1.52,3.824 -2.73,5.652 -1.22,1.821 -2.68,3.524 -4.38,5.106 -1.7,1.703 -3.62,2.976 -5.74,3.824 -2.13,0.856 -4.47,1.277 -7.02,1.277 -0.12,0 -0.21,0 -0.27,0 -0.06,0 -0.22,0 -0.46,0 -0.12,0 -0.24,0 -0.37,0 -0.12,0 -0.24,0 -0.36,0 -1.46,0 -2.79,-0.121 -4.01,-0.363 -1.21,-0.242 -2.37,-0.605 -3.47,-1.09 -1.08,-0.492 -2.18,-1.035 -3.28,-1.644 -1.09,-0.61 -2.18,-1.336 -3.27,-2.188 -0.61,-0.488 -1.22,-1.031 -1.83,-1.64 -0.61,-0.61 -1.21,-1.215 -1.82,-1.825 -0.61,-0.609 -1.25,-1.273 -1.92,-2.004 -0.66,-0.73 -1.3,-1.457 -1.91,-2.191 l -2.73,0.363 v 10.032 c 0.24,0 0.54,0.093 0.91,0.269 0.36,0.184 0.72,0.336 1.09,0.461 0.37,0.242 0.73,0.484 1.1,0.727 0.36,0.246 0.72,0.488 1.09,0.73 1.7,0.977 3.49,1.852 5.38,2.645 1.88,0.789 3.91,1.609 6.11,2.461 2.18,0.73 4.46,1.304 6.83,1.73 2.37,0.422 4.89,0.641 7.57,0.641 5.35,0 10.02,-0.582 14.03,-1.739 4.01,-1.152 7.3,-2.882 9.85,-5.191 2.55,-2.309 4.47,-5.41 5.74,-9.301 1.28,-3.887 1.91,-8.504 1.91,-13.851 v -45.578 c 0,-1.215 0.1,-2.157 0.28,-2.829 0.18,-0.664 0.52,-1.183 1,-1.546 0.48,-0.368 1.03,-0.641 1.64,-0.821 0.61,-0.183 1.28,-0.273 2.01,-0.273 0.36,0 0.72,0 1.09,0 0.37,0 0.79,0.062 1.28,0.183 0.48,0 0.94,0.059 1.37,0.18 0.42,0.121 0.88,0.242 1.36,0.363 v -3.828 c -0.61,-0.726 -1.24,-1.304 -1.91,-1.73 -0.67,-0.426 -1.37,-0.754 -2.1,-1 -0.37,-0.121 -0.73,-0.184 -1.09,-0.184 -0.36,0 -0.73,-0.062 -1.1,-0.183 -0.48,-0.122 -0.91,-0.215 -1.27,-0.27 -0.37,-0.062 -0.73,-0.094 -1.1,-0.094 -0.12,0 -0.21,0 -0.27,0 -0.06,0 -0.09,-0.062 -0.09,-0.183 -0.12,0 -0.21,0 -0.27,0 -0.07,0 -0.16,0 -0.28,0 -0.12,0 -0.24,0 -0.36,0 -0.12,0 -0.22,0 -0.28,0 -0.06,0 -0.15,0 -0.27,0 -1.82,0 -3.58,0.215 -5.29,0.64 -1.7,0.422 -3.28,1.059 -4.74,1.914 -1.57,0.969 -2.79,2.125 -3.64,3.461 -0.85,1.336 -1.4,2.797 -1.64,4.379 -0.37,-0.371 -0.7,-0.672 -1.01,-0.914 -0.3,-0.242 -0.57,-0.488 -0.82,-0.73 -0.36,-0.243 -0.7,-0.485 -1,-0.727 -0.3,-0.246 -0.58,-0.488 -0.82,-0.73 -2.19,-1.703 -4.31,-3.161 -6.38,-4.375 -2.07,-1.219 -4.13,-2.125 -6.2,-2.735 -2.07,-0.73 -4.1,-1.277 -6.11,-1.64 -2,-0.364 -3.91,-0.547 -5.74,-0.547 -3.64,0 -6.96,0.515 -9.93,1.551 -2.98,1.031 -5.69,2.582 -8.12,4.648 -2.31,2.187 -4.07,4.648 -5.29,7.379 -1.21,2.738 -1.82,5.683 -1.82,8.844 z m 53.24,22.973 c -6.69,-0.852 -12.46,-1.825 -17.32,-2.918 -4.86,-1.094 -8.75,-2.493 -11.67,-4.192 -2.92,-1.578 -5.13,-3.527 -6.65,-5.836 -1.52,-2.308 -2.28,-5.039 -2.28,-8.203 0,-0.484 0,-0.937 0,-1.367 0,-0.426 0.06,-0.82 0.18,-1.184 0,-0.363 0.03,-0.761 0.09,-1.187 0.06,-0.422 0.15,-0.879 0.27,-1.363 0,-0.125 0,-0.215 0,-0.278 0,-0.058 0.06,-0.152 0.19,-0.273 0,-0.121 0,-0.211 0,-0.274 0,-0.058 0,-0.148 0,-0.269 0,-0.121 0,-0.219 0,-0.274 0,-0.062 0.05,-0.093 0.18,-0.093 0,-0.121 0.03,-0.211 0.09,-0.274 0.06,-0.062 0.16,-0.148 0.27,-0.273 0.61,-1.094 1.37,-2.129 2.28,-3.098 0.91,-0.973 2.1,-1.945 3.56,-2.918 1.46,-0.851 3.01,-1.515 4.65,-2.008 1.64,-0.484 3.43,-0.726 5.37,-0.726 0.97,0 1.92,0.062 2.83,0.183 0.91,0.121 1.85,0.301 2.83,0.543 0.97,0.246 1.94,0.578 2.92,1.008 0.96,0.422 1.94,0.938 2.91,1.543 0.73,0.492 1.49,1.035 2.28,1.645 0.79,0.609 1.61,1.277 2.46,2.004 0.37,0.367 0.72,0.73 1.1,1.093 0.36,0.367 0.78,0.793 1.27,1.278 0.36,0.488 0.73,0.972 1.09,1.461 0.37,0.484 0.73,0.968 1.1,1.457 v 0.363 z m 43.02,96.257 c 0.12,-0.238 0.24,-0.394 0.37,-0.457 0.12,-0.058 0.24,-0.089 0.36,-0.089 0,-0.122 0.06,-0.176 0.18,-0.176 0.13,0 0.25,0 0.37,0 0.24,-0.129 0.48,-0.184 0.72,-0.184 0.25,0 0.5,0 0.74,0 0.48,-0.125 0.94,-0.25 1.37,-0.367 0.42,-0.121 0.87,-0.184 1.36,-0.184 0.49,0 0.94,0 1.37,0 0.42,0 0.88,0 1.37,0 0.6,0 1.24,0 1.91,0 0.67,0 1.31,0.063 1.91,0.184 0.61,0.117 1.25,0.273 1.92,0.453 0.67,0.184 1.25,0.336 1.73,0.461 v -65.637 c 0.12,-0.117 0.21,-0.117 0.27,0 0.07,0.125 0.16,0.246 0.28,0.367 0,0.122 0.03,0.211 0.09,0.274 0.06,0.059 0.15,0.152 0.27,0.273 0.13,0.121 0.25,0.246 0.37,0.364 0.24,0.242 0.45,0.484 0.63,0.726 0.19,0.246 0.4,0.551 0.64,0.914 0.25,0.246 0.49,0.516 0.73,0.824 0.24,0.297 0.49,0.637 0.73,1 1.1,1.458 2.46,2.883 4.1,4.286 1.64,1.398 3.5,2.703 5.57,3.922 2.06,1.332 4.7,2.304 7.93,2.91 3.21,0.609 7.07,0.914 11.57,0.914 3.89,0 7.48,-0.789 10.76,-2.367 3.28,-1.582 6.2,-3.954 8.75,-7.11 2.55,-3.16 4.46,-6.719 5.74,-10.668 1.28,-3.953 1.92,-8.23 1.92,-12.851 v -57.063 c -0.74,0 -1.43,0.031 -2.1,0.086 -0.67,0.066 -1.31,0.156 -1.91,0.277 -0.61,0.122 -1.22,0.211 -1.83,0.274 -0.61,0.062 -1.21,0.09 -1.82,0.09 -0.61,0 -1.25,-0.028 -1.92,-0.09 -0.66,-0.063 -1.31,-0.152 -1.91,-0.274 -0.37,0 -0.73,-0.031 -1.09,-0.089 -0.37,-0.063 -0.67,-0.09 -0.92,-0.09 -0.36,-0.121 -0.72,-0.184 -1.09,-0.184 -0.37,0 -0.73,0 -1.09,0 v 55.969 c 0,3.769 -0.55,7.141 -1.64,10.117 -1.1,2.977 -2.74,5.441 -4.93,7.387 -2.19,2.062 -4.47,3.609 -6.83,4.644 -2.38,1.035 -4.9,1.551 -7.57,1.551 -0.12,0 -0.27,0 -0.45,0 -0.19,0 -0.4,0 -0.64,0 -0.13,0 -0.25,0 -0.37,0 -0.12,0 -0.21,0 -0.27,0 -0.06,0 -0.15,0 -0.27,0 -2.68,-0.367 -5.26,-1.215 -7.75,-2.551 -2.49,-1.336 -4.9,-3.222 -7.2,-5.652 -2.31,-2.313 -4.02,-5.289 -5.11,-8.934 -1.09,-3.648 -1.64,-7.839 -1.64,-12.578 v -49.953 c -0.48,0 -1,0.031 -1.55,0.086 -0.55,0.066 -1.13,0.156 -1.73,0.277 -0.61,0.122 -1.25,0.211 -1.92,0.274 -0.67,0.062 -1.3,0.09 -1.91,0.09 -0.36,0 -0.73,0 -1.09,0 -0.37,0 -0.67,-0.059 -0.91,-0.18 -0.37,0 -0.74,-0.031 -1.1,-0.094 -0.36,-0.058 -0.73,-0.09 -1.09,-0.09 -0.73,-0.121 -1.46,-0.211 -2.19,-0.277 -0.73,-0.055 -1.46,-0.086 -2.19,-0.086 z m 104.83,-50.312 c 0.12,-0.246 0.24,-0.399 0.37,-0.461 0.12,-0.059 0.23,-0.086 0.36,-0.086 0,-0.121 0.06,-0.184 0.18,-0.184 0.12,0 0.24,0 0.37,0 0.24,-0.125 0.48,-0.183 0.73,-0.183 0.24,0 0.48,0 0.73,0 0.48,-0.121 0.94,-0.242 1.36,-0.363 0.43,-0.125 0.88,-0.188 1.37,-0.188 0.49,0 0.94,0 1.37,0 0.42,0 0.88,0 1.37,0 0.6,0 1.24,0 1.91,0 0.67,0 1.3,0.063 1.91,0.188 0.61,0.121 1.25,0.269 1.91,0.453 0.68,0.187 1.25,0.332 1.74,0.453 v -88.598 c -0.49,0 -1,0.031 -1.55,0.086 -0.55,0.066 -1.12,0.156 -1.74,0.277 -0.6,0.122 -1.24,0.211 -1.91,0.274 -0.66,0.062 -1.3,0.09 -1.91,0.09 -0.36,0 -0.73,0 -1.1,0 -0.36,0 -0.66,-0.059 -0.91,-0.18 -0.36,0 -0.72,-0.031 -1.09,-0.094 -0.37,-0.058 -0.73,-0.09 -1.1,-0.09 -0.72,-0.121 -1.45,-0.211 -2.18,-0.277 -0.73,-0.055 -1.46,-0.086 -2.19,-0.086 z m -1.45,31.535 c 0,1.582 0.24,2.981 0.72,4.195 0.49,1.211 1.22,2.246 2.19,3.094 0.97,0.856 2.01,1.496 3.1,1.922 1.09,0.422 2.25,0.637 3.46,0.637 1.34,0 2.62,-0.215 3.83,-0.637 1.21,-0.426 2.37,-1.066 3.47,-1.922 1.09,-0.848 1.91,-1.914 2.46,-3.187 0.54,-1.278 0.82,-2.766 0.82,-4.465 -0.13,-1.699 -0.52,-3.192 -1.19,-4.469 -0.67,-1.273 -1.49,-2.34 -2.46,-3.187 -0.97,-0.852 -2.01,-1.489 -3.1,-1.915 -1.09,-0.425 -2.25,-0.64 -3.46,-0.64 -1.22,0 -2.4,0.215 -3.56,0.64 -1.15,0.426 -2.21,1.063 -3.19,1.915 -1.09,0.968 -1.88,2.097 -2.37,3.375 -0.48,1.273 -0.72,2.703 -0.72,4.281 v 0.363"
         style="fill:#231f20;fill-opacity:1;fill-rule:nonzero;stroke:none"
         id="path18" /><path
         d="m 1271.26,136.754 c 0,2.68 0.43,5.226 1.28,7.66 0.85,2.43 2.13,4.676 3.83,6.742 1.7,2.067 4.04,3.918 7.02,5.567 2.98,1.636 6.59,3.004 10.84,4.097 l 22.98,4.743 c 1.33,0.121 2.52,0.453 3.56,1 1.03,0.55 1.84,1.246 2.45,2.097 0.61,0.973 1.07,2.008 1.37,3.098 0.31,1.097 0.45,2.254 0.45,3.465 0,0.242 0,0.457 0,0.64 0,0.184 0,0.395 0,0.633 -0.12,0.246 -0.18,0.484 -0.18,0.731 0,0.246 0,0.488 0,0.734 -0.12,0.484 -0.21,0.969 -0.27,1.453 -0.06,0.488 -0.21,0.977 -0.46,1.461 -0.61,1.945 -1.52,3.824 -2.73,5.652 -1.22,1.821 -2.67,3.524 -4.38,5.106 -1.7,1.703 -3.61,2.976 -5.74,3.824 -2.13,0.856 -4.46,1.277 -7.02,1.277 -0.12,0 -0.21,0 -0.27,0 -0.06,0 -0.21,0 -0.46,0 -0.12,0 -0.24,0 -0.36,0 -0.12,0 -0.24,0 -0.37,0 -1.46,0 -2.79,-0.121 -4.01,-0.363 -1.21,-0.242 -2.36,-0.605 -3.46,-1.09 -1.1,-0.492 -2.19,-1.035 -3.28,-1.644 -1.1,-0.61 -2.19,-1.336 -3.28,-2.188 -0.61,-0.488 -1.22,-1.031 -1.82,-1.64 -0.62,-0.61 -1.22,-1.215 -1.83,-1.825 -0.6,-0.609 -1.24,-1.273 -1.92,-2.004 -0.66,-0.73 -1.3,-1.457 -1.91,-2.191 l -2.74,0.363 v 10.032 c 0.25,0 0.55,0.093 0.91,0.269 0.37,0.184 0.74,0.336 1.11,0.461 0.36,0.242 0.72,0.484 1.09,0.727 0.36,0.246 0.72,0.488 1.09,0.73 1.7,0.977 3.49,1.852 5.38,2.645 1.88,0.789 3.92,1.609 6.1,2.461 2.2,0.73 4.47,1.304 6.84,1.73 2.37,0.422 4.89,0.641 7.57,0.641 5.35,0 10.02,-0.582 14.04,-1.739 4.01,-1.152 7.29,-2.882 9.84,-5.191 2.55,-2.309 4.47,-5.41 5.74,-9.301 1.28,-3.887 1.92,-8.504 1.92,-13.851 v -45.578 c 0,-1.215 0.09,-2.157 0.27,-2.829 0.18,-0.664 0.51,-1.183 1,-1.546 0.49,-0.368 1.03,-0.641 1.64,-0.821 0.61,-0.183 1.28,-0.273 2.01,-0.273 0.36,0 0.73,0 1.1,0 0.35,0 0.78,0.062 1.27,0.183 0.49,0 0.94,0.059 1.37,0.18 0.42,0.121 0.88,0.242 1.36,0.363 v -3.828 c -0.6,-0.726 -1.24,-1.304 -1.91,-1.73 -0.67,-0.426 -1.36,-0.754 -2.09,-1 -0.37,-0.121 -0.74,-0.184 -1.1,-0.184 -0.36,0 -0.73,-0.062 -1.1,-0.183 -0.48,-0.122 -0.91,-0.215 -1.27,-0.27 -0.37,-0.062 -0.73,-0.094 -1.09,-0.094 -0.12,0 -0.21,0 -0.28,0 -0.06,0 -0.09,-0.062 -0.09,-0.183 -0.12,0 -0.21,0 -0.27,0 -0.07,0 -0.16,0 -0.28,0 -0.12,0 -0.24,0 -0.36,0 -0.12,0 -0.22,0 -0.27,0 -0.06,0 -0.16,0 -0.28,0 -1.82,0 -3.58,0.215 -5.29,0.64 -1.7,0.422 -3.28,1.059 -4.73,1.914 -1.58,0.969 -2.8,2.125 -3.65,3.461 -0.85,1.336 -1.4,2.797 -1.64,4.379 -0.37,-0.371 -0.7,-0.672 -1.01,-0.914 -0.3,-0.242 -0.57,-0.488 -0.81,-0.73 -0.37,-0.243 -0.71,-0.485 -1.01,-0.727 -0.3,-0.246 -0.58,-0.488 -0.82,-0.73 -2.19,-1.703 -4.31,-3.161 -6.38,-4.375 -2.06,-1.219 -4.13,-2.125 -6.2,-2.735 -2.06,-0.73 -4.1,-1.277 -6.11,-1.64 -2,-0.364 -3.91,-0.547 -5.73,-0.547 -3.65,0 -6.97,0.515 -9.94,1.551 -2.98,1.031 -5.68,2.582 -8.11,4.648 -2.31,2.187 -4.08,4.648 -5.29,7.379 -1.22,2.738 -1.83,5.683 -1.83,8.844 z m 53.24,22.973 c -6.69,-0.852 -12.46,-1.825 -17.32,-2.918 -4.86,-1.094 -8.75,-2.493 -11.67,-4.192 -2.91,-1.578 -5.13,-3.527 -6.65,-5.836 -1.52,-2.308 -2.28,-5.039 -2.28,-8.203 0,-0.484 0,-0.937 0,-1.367 0,-0.426 0.06,-0.82 0.18,-1.184 0,-0.363 0.03,-0.761 0.09,-1.187 0.06,-0.422 0.15,-0.879 0.27,-1.363 0,-0.125 0,-0.215 0,-0.278 0,-0.058 0.06,-0.152 0.19,-0.273 0,-0.121 0,-0.211 0,-0.274 0,-0.058 0,-0.148 0,-0.269 0,-0.121 0,-0.219 0,-0.274 0,-0.062 0.06,-0.093 0.18,-0.093 0,-0.121 0.03,-0.211 0.09,-0.274 0.06,-0.062 0.15,-0.148 0.28,-0.273 0.6,-1.094 1.36,-2.129 2.28,-3.098 0.91,-0.973 2.09,-1.945 3.55,-2.918 1.46,-0.851 3.01,-1.515 4.65,-2.008 1.64,-0.484 3.43,-0.726 5.37,-0.726 0.98,0 1.92,0.062 2.83,0.183 0.91,0.121 1.85,0.301 2.83,0.543 0.97,0.246 1.94,0.578 2.91,1.008 0.97,0.422 1.95,0.938 2.92,1.543 0.73,0.492 1.49,1.035 2.28,1.645 0.79,0.609 1.61,1.277 2.46,2.004 0.36,0.367 0.73,0.73 1.1,1.093 0.36,0.367 0.78,0.793 1.27,1.278 0.37,0.488 0.73,0.972 1.09,1.461 0.37,0.484 0.73,0.968 1.1,1.457 v 0.363 24.43"
         style="fill:#231f20;fill-opacity:1;fill-rule:nonzero;stroke:none"
         id="path20" /><path
         d="m 293.938,531.559 c 135.011,0 244.5,-109.489 244.5,-244.5 0,-135.012 -109.489,-244.5004 -244.5,-244.5004 -135.012,0 -244.5005,109.4884 -244.5005,244.5004 0,135.011 109.4885,244.5 244.5005,244.5"
         style="fill:#e5143c;fill-opacity:1;fill-rule:evenodd;stroke:none"
         id="path22" /><path
         d="m 211.895,517.359 c 1.246,6.649 2.543,11.985 3.902,16.043 1.277,3.524 2.785,6.368 4.605,8.301 2.086,2.422 4.84,1.641 8.539,-4.328 0.59,-1.043 1.196,-2.223 1.801,-3.551 l 0.367,-1.183 c 6.039,-22.371 10.36,-44.903 13.645,-67.532 5.609,-40.793 9.113,-88.941 11.305,-136.894 -36.172,-0.285 -73.657,0.519 -110.907,2.117 -34.449,1.652 -68.0387,3.797 -100.6403,6.141 l -4.0429,0.316 c -3.379,0.285 -5.9688,0.742 -7.336,1.238 l -0.0703,0.024 -0.043,0.019 c -1.0703,0.45 -1.0234,0.922 -0.1601,1.368 l 0.1289,0.046 c 1.2656,0.356 2.9297,0.606 4.8476,0.782 l 0.3321,0.027 c 4.6445,0.395 10.6914,0.371 16.0937,0.387 l 1.1211,-0.012 0.0078,0.016 h 0.0039 l 0.4493,2.023 h -0.0157 v 0.016 l -0.5039,-0.004 c -10.25,0.246 -18.582,0.125 -29.5469,-0.18 C 19.25,342.254 13.125,341.621 11.0781,340.52 L 11.0664,340.512 11.043,340.5 11.0313,340.469 C 11,340.43 10.9805,340.387 10.9805,340.34 -1.39063,310.141 -0.5,262.723 16,229.266 24.7344,216.617 39.7031,210.367 63.4414,205.41 124.418,196.785 187.965,190.949 255.195,190.57 c -0.136,-12.183 -0.488,-23.965 -1.031,-35.371 l -0.113,0.02 c -2,-38.606 -5.703,-78.3792 -14.774,-114.6956 l -0.269,-0.6836 c -3.156,-7.3515 -6.727,-8.9062 -9.18,-7.371 l -0.289,0.1992 -0.008,0.0078 -0.051,0.0351 -0.125,0.1016 c -0.121,0.1055 -0.238,0.2148 -0.359,0.3359 -4.098,4.5235 -6.301,10.5899 -9.101,20.8204 l -7.122,2.457 0.02,-0.0977 -0.113,0.0391 c 2.14,-8.9609 5.226,-19.5117 8.89,-28.1953 l 0.075,-0.1914 c 2.484,-6.1094 6.175,-12.9688 10.269,-15.8164 l 0.219,-0.0586 0.191,-0.1289 c 35.656,-6.33597 72.36,-7.10941 110.098,-2.32816 17.984,1.78126 34.391,6.71486 48.902,15.44136 10.172,8.3946 15.121,18.004 18.016,28.3125 12.781,45.5469 17.832,94.3247 20.59,144.1247 51.609,3.68 97.832,10.055 132.359,22.274 1.805,0.64 4.137,1.922 4.813,3.758 11.695,38.875 12.113,74.027 6.445,114.984 -0.043,0.086 -0.102,0.168 -0.164,0.25 0.055,0.125 0.055,0.238 0,0.348 -2.766,1.832 -6.789,2.683 -12.617,3.289 h -0.02 l -0.316,0.035 c -3.297,0.359 -7.133,0.633 -11.434,0.832 l -0.105,0.004 -0.032,0.004 c -5.144,0.312 -10.328,0.523 -16.453,0.402 l -0.574,0.004 0.004,-0.016 h -0.004 l 0.207,-0.91 0.391,-1.699 h 0.008 l 0.015,-0.063 c 4.246,-0.023 8.008,0.004 11.293,-0.132 5.539,-0.313 8.578,-0.95 8.996,-1.735 0.313,-0.886 -2.484,-1.945 -9.695,-3.078 -20.121,-2.476 -40.828,-4.551 -62.024,-5.652 l -0.058,-0.071 c -16.317,-0.871 -33.012,-1.347 -49.746,-1.57 -6.621,112.149 -22.375,197.688 -56.18,230.629 -57.109,15.707 -111.48,17.813 -150.082,2.348 -0.148,-0.016 -0.301,-0.051 -0.445,-0.11 -4.211,-2.726 -8.883,-9.55 -10.883,-15.867 l -0.481,-1.5 c -2.453,-6.75 -3.828,-14.523 -4.609,-23.226 l -0.043,-0.457 v -0.036 c -0.113,-1.214 -0.207,-2.429 -0.281,-3.648 v -0.02 l -0.031,-0.441 -0.032,-0.492 2.047,0.762 1.684,0.601 v 0.024 l 0.012,0.007"
         style="fill:#ffffff;fill-opacity:1;fill-rule:evenodd;stroke:none"
         id="path24" /><path
         d="m 211.895,517.359 c 1.246,6.649 2.543,11.985 3.902,16.043 1.277,3.524 2.785,6.368 4.605,8.301 2.086,2.422 4.84,1.641 8.539,-4.328 0.59,-1.043 1.196,-2.223 1.801,-3.551 l 0.367,-1.183 c 6.039,-22.371 10.36,-44.903 13.645,-67.532 5.609,-40.793 9.113,-88.941 11.305,-136.894 -36.172,-0.285 -73.657,0.519 -110.907,2.117 -34.449,1.652 -68.0387,3.797 -100.6403,6.141 l -4.0429,0.316 c -3.379,0.285 -5.9688,0.742 -7.336,1.238 l -0.0703,0.024 -0.043,0.019 c -1.0703,0.45 -1.0234,0.922 -0.1601,1.368 l 0.1289,0.046 c 1.2656,0.356 2.9297,0.606 4.8476,0.782 l 0.3321,0.027 c 4.6445,0.395 10.6914,0.371 16.0937,0.387 l 1.1211,-0.012 0.0078,0.016 h 0.0039 l 0.4493,2.023 h -0.0157 v 0.016 l -0.5039,-0.004 c -10.25,0.246 -18.582,0.125 -29.5469,-0.18 C 19.25,342.254 13.125,341.621 11.0781,340.52 L 11.0664,340.512 11.043,340.5 11.0313,340.469 C 11,340.43 10.9805,340.387 10.9805,340.34 -1.39063,310.141 -0.5,262.723 16,229.266 24.7344,216.617 39.7031,210.367 63.4414,205.41 124.418,196.785 187.965,190.949 255.195,190.57 c -0.136,-12.183 -0.488,-23.965 -1.031,-35.371 l -0.113,0.02 c -2,-38.606 -5.703,-78.3792 -14.774,-114.6956 l -0.269,-0.6836 c -3.156,-7.3515 -6.727,-8.9062 -9.18,-7.371 l -0.289,0.1992 -0.008,0.0078 -0.051,0.0351 -0.125,0.1016 c -0.121,0.1055 -0.238,0.2148 -0.359,0.3359 -4.098,4.5235 -6.301,10.5899 -9.101,20.8204 l -7.122,2.457 0.02,-0.0977 -0.113,0.0391 c 2.14,-8.9609 5.226,-19.5117 8.89,-28.1953 l 0.075,-0.1914 c 2.484,-6.1094 6.175,-12.9688 10.269,-15.8164 l 0.219,-0.0586 0.191,-0.1289 c 35.656,-6.33597 72.36,-7.10941 110.098,-2.32816 17.984,1.78126 34.391,6.71486 48.902,15.44136 10.172,8.3946 15.121,18.004 18.016,28.3125 12.781,45.5469 17.832,94.3247 20.59,144.1247 51.609,3.68 97.832,10.055 132.359,22.274 1.805,0.64 4.137,1.922 4.813,3.758 11.695,38.875 12.113,74.027 6.445,114.984 -0.043,0.086 -0.102,0.168 -0.164,0.25 0.055,0.125 0.055,0.238 0,0.348 -2.766,1.832 -6.789,2.683 -12.617,3.289 h -0.02 l -0.316,0.035 c -3.297,0.359 -7.133,0.633 -11.434,0.832 l -0.105,0.004 -0.032,0.004 c -5.144,0.312 -10.328,0.523 -16.453,0.402 l -0.574,0.004 0.004,-0.016 h -0.004 l 0.207,-0.91 0.391,-1.699 h 0.008 l 0.015,-0.063 c 4.246,-0.023 8.008,0.004 11.293,-0.132 5.539,-0.313 8.578,-0.95 8.996,-1.735 0.313,-0.886 -2.484,-1.945 -9.695,-3.078 -20.121,-2.476 -40.828,-4.551 -62.024,-5.652 l -0.058,-0.071 c -16.317,-0.871 -33.012,-1.347 -49.746,-1.57 -6.621,112.149 -22.375,197.688 -56.18,230.629 -57.109,15.707 -111.48,17.813 -150.082,2.348 -0.148,-0.016 -0.301,-0.051 -0.445,-0.11 -4.211,-2.726 -8.883,-9.55 -10.883,-15.867 l -0.481,-1.5 c -2.453,-6.75 -3.828,-14.523 -4.609,-23.226 l -0.043,-0.457 v -0.036 c -0.113,-1.214 -0.207,-2.429 -0.281,-3.648 v -0.02 l -0.031,-0.441 -0.032,-0.492 2.047,0.762 1.684,0.601 v 0.024 z"
         style="fill:none;stroke:#231f20;stroke-width:2.16;stroke-linecap:butt;stroke-linejoin:miter;stroke-miterlimit:22.9256;stroke-dasharray:none;stroke-opacity:1"
         id="path26" /></g></g></svg>
